<svg width="33" height="35" viewBox="0 0 33 35" fill="none" xmlns="http://www.w3.org/2000/svg">
<path d="M31.625 27.7083C31.625 28.4819 31.3353 29.2237 30.8195 29.7707C30.3038 30.3177 29.6043 30.625 28.875 30.625H4.125C3.39565 30.625 2.69618 30.3177 2.18046 29.7707C1.66473 29.2237 1.375 28.4819 1.375 27.7083V11.6667C1.375 10.8931 1.66473 10.1513 2.18046 9.60427C2.69618 9.05729 3.39565 8.75 4.125 8.75H9.625L12.375 4.375H20.625L23.375 8.75H28.875C29.6043 8.75 30.3038 9.05729 30.8195 9.60427C31.3353 10.1513 31.625 10.8931 31.625 11.6667V27.7083Z" stroke="black" stroke-width="2" stroke-linecap="round" stroke-linejoin="round"/>
<path d="M16.5 24.7917C19.5376 24.7917 22 22.18 22 18.9583C22 15.7367 19.5376 13.125 16.5 13.125C13.4624 13.125 11 15.7367 11 18.9583C11 22.18 13.4624 24.7917 16.5 24.7917Z" stroke="black" stroke-width="2" stroke-linecap="round" stroke-linejoin="round"/>
</svg>
